<mxfile host="app.diagrams.net" agent="Mozilla/5.0 (Windows NT 10.0; Win64; x64) AppleWebKit/537.36 (KHTML, like Gecko) Chrome/127.0.0.0 Safari/537.36 Edg/127.0.0.0" version="24.7.7">
  <diagram name="第 1 页" id="ildNcOqjEj0B4Dg8pSYM">
    <mxGraphModel dx="907" dy="630" grid="1" gridSize="10" guides="1" tooltips="1" connect="1" arrows="1" fold="1" page="1" pageScale="1" pageWidth="827" pageHeight="1169" math="0" shadow="0">
      <root>
        <mxCell id="0" />
        <mxCell id="1" parent="0" />
        <mxCell id="bunb0f2CLHZshGHE2HJ3-1" value="关键技术问题" style="rounded=0;whiteSpace=wrap;html=1;fontSize=14;" vertex="1" parent="1">
          <mxGeometry x="100" y="150" width="110" height="45" as="geometry" />
        </mxCell>
        <mxCell id="bunb0f2CLHZshGHE2HJ3-2" value="研究内容" style="rounded=0;whiteSpace=wrap;html=1;fontSize=14;" vertex="1" parent="1">
          <mxGeometry x="100" y="225" width="110" height="45" as="geometry" />
        </mxCell>
        <mxCell id="bunb0f2CLHZshGHE2HJ3-3" value="算法与模型" style="rounded=0;whiteSpace=wrap;html=1;fontSize=14;" vertex="1" parent="1">
          <mxGeometry x="100" y="300" width="110" height="45" as="geometry" />
        </mxCell>
        <mxCell id="bunb0f2CLHZshGHE2HJ3-4" value="整体叶盘类零件智能编程技术" style="rounded=0;whiteSpace=wrap;html=1;fontSize=14;" vertex="1" parent="1">
          <mxGeometry x="250" y="150" width="610" height="45" as="geometry" />
        </mxCell>
        <mxCell id="bunb0f2CLHZshGHE2HJ3-5" value="面向智能编程的特征识别技术" style="rounded=0;whiteSpace=wrap;html=1;fontSize=14;" vertex="1" parent="1">
          <mxGeometry x="250" y="225" width="191" height="45" as="geometry" />
        </mxCell>
        <mxCell id="bunb0f2CLHZshGHE2HJ3-6" value="基于生成式人工智能工艺知识库技术" style="rounded=0;whiteSpace=wrap;html=1;fontSize=14;" vertex="1" parent="1">
          <mxGeometry x="669" y="225" width="191" height="45" as="geometry" />
        </mxCell>
        <mxCell id="bunb0f2CLHZshGHE2HJ3-7" value="面向加工工艺流程和参数的知识模板构建和重用技术" style="rounded=0;whiteSpace=wrap;html=1;fontSize=14;" vertex="1" parent="1">
          <mxGeometry x="460" y="225" width="191" height="45" as="geometry" />
        </mxCell>
        <mxCell id="bunb0f2CLHZshGHE2HJ3-8" value="特征识别算法" style="rounded=0;whiteSpace=wrap;html=1;fontSize=14;" vertex="1" parent="1">
          <mxGeometry x="250" y="300" width="110" height="45" as="geometry" />
        </mxCell>
        <mxCell id="bunb0f2CLHZshGHE2HJ3-9" value="面向整体叶盘类零件的工艺知识库" style="rounded=0;whiteSpace=wrap;html=1;fontSize=14;" vertex="1" parent="1">
          <mxGeometry x="575" y="300" width="120" height="45" as="geometry" />
        </mxCell>
        <mxCell id="bunb0f2CLHZshGHE2HJ3-11" value="面向智能编程的AI大模型" style="rounded=0;whiteSpace=wrap;html=1;fontSize=14;" vertex="1" parent="1">
          <mxGeometry x="740" y="300" width="120" height="45" as="geometry" />
        </mxCell>
        <mxCell id="bunb0f2CLHZshGHE2HJ3-12" value="智能工艺推理算法" style="rounded=0;whiteSpace=wrap;html=1;fontSize=14;" vertex="1" parent="1">
          <mxGeometry x="410" y="300" width="120" height="45" as="geometry" />
        </mxCell>
      </root>
    </mxGraphModel>
  </diagram>
</mxfile>
